<svg width="30" height="30" viewBox="0 0 30 30" fill="none" xmlns="http://www.w3.org/2000/svg">
<path fill-rule="evenodd" clip-rule="evenodd" d="M21.25 8.75C21.25 5.29822 18.4518 2.5 15 2.5C11.5482 2.5 8.75 5.29822 8.75 8.75C8.75 12.2018 11.5482 15 15 15H13.75C7.5368 15 2.5 20.0368 2.5 26.25C2.5 26.9404 3.05964 27.5 3.75 27.5H26.25C26.9404 27.5 27.5 26.9404 27.5 26.25C27.5 20.0368 22.4632 15 16.25 15H15C16.6576 15 18.2473 14.3415 19.4194 13.1694C20.5915 11.9973 21.25 10.4076 21.25 8.75ZM13.75 17.5C9.39953 17.4989 5.709 20.6941 5.0875 25H24.9125C24.291 20.6941 20.6005 17.4989 16.25 17.5H13.75ZM11.25 8.75C11.25 10.8211 12.9289 12.5 15 12.5C15.9946 12.5 16.9484 12.1049 17.6517 11.4017C18.3549 10.6984 18.75 9.74456 18.75 8.75C18.75 6.67893 17.0711 5 15 5C12.9289 5 11.25 6.67893 11.25 8.75Z" fill="white"/>
</svg>
