<svg width="18" height="17" viewBox="0 0 18 17" fill="none" xmlns="http://www.w3.org/2000/svg">
<path fill-rule="evenodd" clip-rule="evenodd" d="M13.8533 1.75861H3.72664C2.52818 1.75861 1.55664 2.68491 1.55664 3.82757V13.4827C1.55664 14.6254 2.52818 15.5517 3.72664 15.5517H13.8533C15.0518 15.5517 16.0233 14.6254 16.0233 13.4827V3.82757C16.0233 2.68491 15.0518 1.75861 13.8533 1.75861ZM14.5766 13.4827C14.5766 13.8636 14.2528 14.1724 13.8533 14.1724H3.72664C3.32715 14.1724 3.00331 13.8636 3.00331 13.4827V3.82757C3.00331 3.44669 3.32715 3.13792 3.72664 3.13792H13.8533C14.2528 3.13792 14.5766 3.44669 14.5766 3.82757V13.4827ZM12.8913 6.3724C13.1717 6.10341 13.1717 5.66898 12.8913 5.39999C12.7497 5.27474 12.5616 5.20865 12.3687 5.21642C12.1757 5.22419 11.9941 5.30518 11.8641 5.44136L6.99611 10.3793L5.72304 9.08964C5.55165 8.8897 5.27746 8.7978 5.01255 8.8515C4.74763 8.90521 4.53638 9.09551 4.46512 9.34464C4.39387 9.59377 4.47456 9.85998 4.67421 10.0345L6.43914 11.8483C6.57672 11.9859 6.76778 12.0632 6.96717 12.0621C7.16657 12.0632 7.35763 11.9859 7.49521 11.8483L12.8913 6.3724Z" fill="#F5F5F5"/>
</svg>
