<svg width="40" height="40" viewBox="0 0 40 40" fill="none" xmlns="http://www.w3.org/2000/svg">
<path d="M24.6833 0.51833C23.1528 0.190794 21.5908 0.0170778 20.0226 0C18.4157 0.0166665 16.8523 0.191665 15.3202 0.51833C14.9934 0.588369 14.6978 0.75456 14.4745 0.993639C14.2512 1.23272 14.1115 1.53272 14.075 1.85165L13.7115 4.97996C13.6594 5.42121 13.5003 5.84463 13.2468 6.21636C12.9933 6.58809 12.6526 6.89779 12.2518 7.12068C11.8511 7.34357 11.4014 7.47346 10.9389 7.49996C10.4764 7.52646 10.0138 7.44883 9.58819 7.27328L6.59699 6.01162C6.29338 5.88352 5.95572 5.84904 5.63076 5.91294C5.30579 5.97683 5.00959 6.13596 4.78314 6.36829C2.61983 8.5867 1.00913 11.246 0.0719983 14.1466C-0.0267319 14.4519 -0.023857 14.7792 0.0802241 15.0829C0.184305 15.3866 0.384433 15.6517 0.652848 15.8415L3.30841 17.7165C3.68193 17.98 3.98559 18.3239 4.19488 18.7205C4.40416 19.1172 4.51321 19.5554 4.51321 19.9998C4.51321 20.4443 4.40416 20.8825 4.19488 21.2792C3.98559 21.6758 3.68193 22.0197 3.30841 22.2832L0.652848 24.1631C0.384779 24.3528 0.184874 24.6177 0.0808087 24.9211C-0.0232568 25.2245 -0.0263359 25.5513 0.0719983 25.8565C1.00719 28.7595 2.61672 31.4218 4.77966 33.6431C5.0059 33.8757 5.30201 34.0351 5.62699 34.0993C5.95196 34.1635 6.28972 34.1293 6.59351 34.0014L9.59862 32.7364C10.0217 32.5593 10.4824 32.48 10.9434 32.5049C11.4043 32.5298 11.8528 32.6582 12.2524 32.8798C13.0629 33.3297 13.6037 34.1214 13.7098 35.0147L14.0715 38.143C14.1078 38.4577 14.2446 38.7539 14.4631 38.9914C14.6815 39.2288 14.9711 39.3958 15.2923 39.4697C18.3868 40.1768 21.6114 40.1768 24.7059 39.4697C25.0271 39.3958 25.3167 39.2288 25.5352 38.9914C25.7537 38.7539 25.8904 38.4577 25.9268 38.143L26.2885 35.0097C26.3375 34.5682 26.4947 34.144 26.747 33.7717C26.9994 33.3993 27.3399 33.0893 27.7408 32.8668C28.1418 32.6443 28.5918 32.5156 29.0544 32.4912C29.517 32.4668 29.9791 32.5474 30.4031 32.7264L33.4065 33.9914C33.7103 34.1193 34.048 34.1535 34.373 34.0893C34.698 34.0251 34.9941 33.8657 35.2203 33.6331C37.3821 31.4141 38.9916 28.7549 39.928 25.8548C40.0267 25.5494 40.0239 25.2222 39.9198 24.9185C39.8157 24.6148 39.6156 24.3496 39.3472 24.1598L36.6951 22.2832C36.3214 22.0199 36.0177 21.676 35.8082 21.2795C35.5988 20.8829 35.4896 20.4447 35.4894 20.0003C35.4892 19.5558 35.5981 19.1175 35.8072 18.7208C36.0164 18.3241 36.3199 17.9801 36.6933 17.7165L39.3454 15.8382C39.6132 15.6483 39.8127 15.3833 39.9165 15.08C40.0202 14.7766 40.023 14.4499 39.9245 14.1449C38.988 11.2445 37.3779 8.58513 35.2151 6.36662C34.9887 6.13429 34.6925 5.97517 34.3675 5.91127C34.0425 5.84737 33.7049 5.88186 33.4013 6.00995L30.4101 7.27161C30.0379 7.4304 29.6349 7.51218 29.2275 7.51161C28.499 7.51033 27.7966 7.25146 27.2549 6.7846C26.7132 6.31775 26.3703 5.67575 26.292 4.98163L25.9268 1.84999C25.8903 1.53171 25.7511 1.23229 25.5285 0.99354C25.3059 0.754794 25.0093 0.588654 24.6833 0.51833ZM20 26.6665C18.1551 26.6665 16.3857 25.9641 15.0812 24.7139C13.7766 23.4636 13.0437 21.7679 13.0437 19.9998C13.0437 18.2318 13.7766 16.5361 15.0812 15.2858C16.3857 14.0356 18.1551 13.3332 20 13.3332C21.8449 13.3332 23.6143 14.0356 24.9188 15.2858C26.2234 16.5361 26.9563 18.2318 26.9563 19.9998C26.9563 21.7679 26.2234 23.4636 24.9188 24.7139C23.6143 25.9641 21.8449 26.6665 20 26.6665Z" fill="white"/>
</svg>
