<svg width="18" height="17" viewBox="0 0 18 17" fill="none" xmlns="http://www.w3.org/2000/svg">
<path fill-rule="evenodd" clip-rule="evenodd" d="M16.0233 13.1034V3.44827C16.0233 2.30561 15.0518 1.3793 13.8533 1.3793H3.72664C2.52818 1.3793 1.55664 2.30561 1.55664 3.44827V13.1034C1.55664 14.2461 2.52818 15.1724 3.72664 15.1724H13.8533C15.0518 15.1724 16.0233 14.2461 16.0233 13.1034ZM8.06245 4.82758C8.06245 5.01147 8.13947 5.18774 8.27641 5.31723C8.48335 5.51617 8.79595 5.57597 9.06736 5.46852C9.33876 5.36108 9.51502 5.10776 9.51331 4.82758C9.51502 4.5474 9.33876 4.29408 9.06736 4.18663C8.79595 4.07919 8.48335 4.13899 8.27641 4.33792C8.13947 4.46742 8.06245 4.64369 8.06245 4.82758ZM14.5766 3.44827C14.5766 3.06738 14.2528 2.75861 13.8533 2.75861H3.72664C3.32715 2.75861 3.00331 3.06738 3.00331 3.44827V13.1034C3.00331 13.4843 3.32715 13.7931 3.72664 13.7931H13.8533C14.2528 13.7931 14.5766 13.4843 14.5766 13.1034V3.44827ZM9.51331 11.0345H9.61457C10.0141 11.0345 10.3379 11.3432 10.3379 11.7241C10.3379 12.105 10.0141 12.4138 9.61457 12.4138H7.96537C7.56589 12.4138 7.24204 12.105 7.24204 11.7241C7.24204 11.3432 7.56589 11.0345 7.96537 11.0345H8.06664V7.5862C7.66716 7.5862 7.34331 7.27743 7.34331 6.89654C7.34331 6.51566 7.66716 6.20689 8.06664 6.20689H8.78997C9.18946 6.20689 9.51331 6.51566 9.51331 6.89654V11.0345Z" fill="#5C5C5C"/>
</svg>
